<svg id="Capa_1" enable-background="new 0 0 512 512" height="512" viewBox="0 0 512 512" width="512" xmlns="http://www.w3.org/2000/svg"><path d="m463.96 249.395c0 21.02 17.03 38.05 38.04 38.05v137.57h-492v-137.57c21.01 0 38.04-17.03 38.04-38.05 0-21.01-17.03-38.04-38.04-38.04v-124.37h492v124.37c-21.01 0-38.04 17.03-38.04 38.04z" fill="#f9f5f3"/><path d="m233.97 194.155v92c0 10.327-8.38 18.72-18.72 18.72h-102.99c-10.34 0-18.73-8.413-18.73-18.72v-92c0-11.147 8.39-17.72 18.73-17.72h102.99c10.34 0 18.72 7.978 18.72 17.72z" fill="#80b4ff"/><path d="m233.97 250.075v36.08c0 10.34-8.38 18.72-18.72 18.72h-102.99c-10.34 0-18.73-8.38-18.73-18.72v-36.08z" fill="#838eb1"/><path d="m10 86.985h492v45.235h-492z" fill="#e0a083"/><path d="m10 379.78h492v45.235h-492z" fill="#e0a083"/><path d="m215.249 166.435h-102.992c-5.613 0-10.704 1.331-14.991 3.705-8.425 4.665-13.736 13.37-13.736 24.015v55.92 36.08c0 7.481 2.879 14.302 7.584 19.418 5.254 5.714 12.786 9.303 21.142 9.303h9.267l-5.763 13.771h-12.752c-5.523 0-10 4.477-10 10s4.477 10 10 10h19.385.108 82.56c.011 0 .022.002.033.002.017 0 .034-.002.051-.002h19.353c5.523 0 10-4.477 10-10s-4.477-10-10-10h-12.688l-5.619-13.771h9.058c15.839 0 28.725-12.884 28.725-28.721v-91.996c0-15.287-12.886-27.724-28.725-27.724zm-107.63 20.889c1.447-.643 3.065-.889 4.641-.889h41.493v53.64h-50.221v-45.916c0-2.954 1.317-5.607 4.087-6.835zm-1.529 104.994c-1.579-1.579-2.557-3.759-2.557-6.163v-26.08h120.437v26.08c0 4.809-3.912 8.72-8.72 8.72h-102.99c-2.407 0-4.59-.978-6.17-2.557zm117.88-52.243h-50.217v-53.64h41.497c4.808 0 8.72 3.463 8.72 7.72zm-33.761 88.572h-52.768l5.763-13.771h41.386z"/><path d="m122.78 280.18c3.43 8.375 15.802 7.893 18.701-.608 2.949-8.647-6.792-16.407-14.603-11.791-4.202 2.483-5.971 7.906-4.098 12.399z"/><path d="m186.26 280.18c1.61 3.93 5.727 6.477 9.964 6.148 4.127-.32 7.693-3.2 8.859-7.171 2.472-8.42-6.869-15.819-14.517-11.498-4.33 2.446-6.221 7.928-4.306 12.521z"/><path d="m414.428 195.81h-43.7c-5.522 0-10 4.477-10 10s4.478 10 10 10h43.7c5.522 0 10-4.477 10-10s-4.478-10-10-10z"/><path d="m414.428 246.075h-43.7c-5.522 0-10 4.477-10 10s4.478 10 10 10h43.7c5.522 0 10-4.477 10-10s-4.478-10-10-10z"/><path d="m414.428 296.34h-131.38c-5.522 0-10 4.477-10 10s4.478 10 10 10h131.38c5.522 0 10-4.477 10-10s-4.478-10-10-10z"/><path d="m283.048 215.81h15.503v40.265c0 5.523 4.478 10 10 10s10-4.477 10-10v-40.265h13.511c5.522 0 10-4.477 10-10s-4.478-10-10-10h-49.014c-5.522 0-10 4.477-10 10s4.477 10 10 10z"/><path d="m502 76.985h-492c-5.523 0-10 4.477-10 10v124.37c0 5.523 4.477 10 10 10 15.461 0 28.04 12.579 28.04 28.04 0 15.467-12.579 28.05-28.04 28.05-5.523 0-10 4.477-10 10v137.57c0 5.523 4.477 10 10 10h492c5.522 0 10-4.477 10-10v-137.57c0-5.523-4.478-10-10-10-15.461 0-28.04-12.583-28.04-28.05 0-15.461 12.579-28.04 28.04-28.04 5.522 0 10-4.477 10-10v-124.37c0-5.523-4.478-10-10-10zm-10 338.03h-472v-25.235h472zm-38.04-165.62c0 23.066 16.333 42.389 38.04 47.003v73.382h-472v-73.382c21.707-4.614 38.04-23.937 38.04-47.003 0-23.062-16.333-42.38-38.04-46.993v-60.182h329.441c5.522 0 10-4.477 10-10s-4.478-10-10-10h-329.441v-25.235h472v25.235h-54.581c-5.522 0-10 4.477-10 10s4.478 10 10 10h54.581v60.182c-21.707 4.613-38.04 23.931-38.04 46.993z"/><path d="m384.8 136.04c1.613 3.934 5.718 6.476 9.964 6.148 4.173-.323 7.775-3.265 8.896-7.304 2.362-8.512-7.182-15.758-14.768-11.235-4.197 2.503-5.97 7.884-4.092 12.391z"/></svg>