<svg id="Layer_1" enable-background="new 0 0 512 512" height="512" viewBox="0 0 512 512" width="512" xmlns="http://www.w3.org/2000/svg"><g id="XMLID_913_"><path id="XMLID_2736_" d="m76 138h360v54h-360z" fill="#f9f6f4"/><path id="XMLID_2733_" d="m76 320h360v54h-360z" fill="#f9f6f4"/><path id="XMLID_2730_" d="m448 320h-384c-11.046 0-20-8.954-20-20v-88c0-11.046 8.954-20 20-20h384c11.046 0 20 8.954 20 20v88c0 11.046-8.954 20-20 20z" fill="#cecbf1"/><g id="XMLID_1526_"><circle id="XMLID_2726_" cx="309.5" cy="256" fill="#ff9b9b" r="20"/><circle id="XMLID_1529_" cx="397.5" cy="256" fill="#b0e7f8" r="20"/></g><path id="XMLID_1299_" d="m448 138h-384c-11.046 0-20-8.954-20-20v-88c0-11.046 8.954-20 20-20h384c11.046 0 20 8.954 20 20v88c0 11.046-8.954 20-20 20z" fill="#9b98e7"/><g id="XMLID_1295_"><circle id="XMLID_1297_" cx="309.5" cy="74" fill="#ff9b9b" r="20"/><circle id="XMLID_1296_" cx="397.5" cy="74" fill="#b0e7f8" r="20"/></g><path id="XMLID_1311_" d="m448 502h-384c-11.046 0-20-8.954-20-20v-88c0-11.046 8.954-20 20-20h384c11.046 0 20 8.954 20 20v88c0 11.046-8.954 20-20 20z" fill="#9b98e7"/><g id="XMLID_1307_"><circle id="XMLID_1309_" cx="309.5" cy="438" fill="#ff9b9b" r="20"/><circle id="XMLID_1308_" cx="397.5" cy="438" fill="#b0e7f8" r="20"/></g><g id="XMLID_47_"><path id="XMLID_48_" d="m225.5 246h-131c-5.523 0-10 4.477-10 10s4.477 10 10 10h131c5.523 0 10-4.477 10-10s-4.477-10-10-10z"/><path id="XMLID_94_" d="m309.5 226c-16.542 0-30 13.458-30 30s13.458 30 30 30 30-13.458 30-30-13.458-30-30-30zm0 40c-5.514 0-10-4.486-10-10s4.486-10 10-10 10 4.486 10 10-4.485 10-10 10z"/><path id="XMLID_849_" d="m397.5 226c-16.542 0-30 13.458-30 30s13.458 30 30 30 30-13.458 30-30-13.458-30-30-30zm0 40c-5.514 0-10-4.486-10-10s4.486-10 10-10 10 4.486 10 10-4.486 10-10 10z"/><path id="XMLID_861_" d="m448 148c16.542 0 30-13.458 30-30v-88c0-16.542-13.458-30-30-30h-384c-16.542 0-30 13.458-30 30v88c0 16.542 13.458 30 30 30h2v34h-2c-16.542 0-30 13.458-30 30v88c0 16.542 13.458 30 30 30h2v34h-2c-16.542 0-30 13.458-30 30v88c0 16.542 13.458 30 30 30h384c16.542 0 30-13.458 30-30v-88c0-16.542-13.458-30-30-30h-2v-34h2c16.542 0 30-13.458 30-30v-88c0-16.542-13.458-30-30-30h-2v-34zm-394-30v-88c0-5.514 4.486-10 10-10h384c5.514 0 10 4.486 10 10v88c0 5.514-4.486 10-10 10h-384c-5.514 0-10-4.486-10-10zm404 276v88c0 5.514-4.486 10-10 10h-384c-5.514 0-10-4.486-10-10v-88c0-5.514 4.486-10 10-10h384c5.514 0 10 4.486 10 10zm0-182v88c0 5.514-4.486 10-10 10h-146.937c-5.523 0-10 4.477-10 10s4.477 10 10 10h124.937v34h-340v-34h125.063c5.523 0 10-4.477 10-10s-4.477-10-10-10h-147.063c-5.514 0-10-4.486-10-10v-88c0-5.514 4.486-10 10-10h384c5.514 0 10 4.486 10 10zm-32-30h-340v-34h340z"/><path id="XMLID_882_" d="m94.5 84h131c5.523 0 10-4.477 10-10s-4.477-10-10-10h-131c-5.523 0-10 4.477-10 10s4.477 10 10 10z"/><path id="XMLID_1426_" d="m309.5 104c16.542 0 30-13.458 30-30s-13.458-30-30-30-30 13.458-30 30 13.458 30 30 30zm0-40c5.514 0 10 4.486 10 10s-4.486 10-10 10-10-4.486-10-10 4.486-10 10-10z"/><path id="XMLID_1435_" d="m397.5 104c16.542 0 30-13.458 30-30s-13.458-30-30-30-30 13.458-30 30 13.458 30 30 30zm0-40c5.514 0 10 4.486 10 10s-4.486 10-10 10-10-4.486-10-10 4.486-10 10-10z"/><path id="XMLID_1436_" d="m225.5 428h-131c-5.523 0-10 4.477-10 10s4.477 10 10 10h131c5.523 0 10-4.477 10-10s-4.477-10-10-10z"/><path id="XMLID_1442_" d="m309.5 408c-16.542 0-30 13.458-30 30s13.458 30 30 30 30-13.458 30-30-13.458-30-30-30zm0 40c-5.514 0-10-4.486-10-10s4.486-10 10-10 10 4.486 10 10-4.485 10-10 10z"/><path id="XMLID_1445_" d="m397.5 408c-16.542 0-30 13.458-30 30s13.458 30 30 30 30-13.458 30-30-13.458-30-30-30zm0 40c-5.514 0-10-4.486-10-10s4.486-10 10-10 10 4.486 10 10-4.486 10-10 10z"/><path id="XMLID_1446_" d="m256.06 310.06c-2.63 0-5.2 1.07-7.07 2.93-1.86 1.86-2.93 4.44-2.93 7.07 0 2.64 1.07 5.21 2.93 7.07 1.86 1.87 4.44 2.93 7.07 2.93s5.21-1.06 7.07-2.93c1.87-1.86 2.93-4.43 2.93-7.07 0-2.63-1.06-5.21-2.93-7.07-1.86-1.86-4.44-2.93-7.07-2.93z"/></g></g></svg>