<svg height="493pt" viewBox="-49 0 493 493.65604" width="493pt" xmlns="http://www.w3.org/2000/svg"><path d="m133.988281 408-80 80h-48l80-80zm0 0" fill="#c18e59"/><path d="m261.988281 408 80 80h48l-80-80zm0 0" fill="#c18e59"/><path d="m317.988281 408h-240c-35.34375 0-64-28.65625-64-64v-272c0-35.34375 28.65625-64 64-64h240c35.34375 0 64 28.65625 64 64v272c0 35.34375-28.65625 64-64 64zm0 0" fill="#af4a47"/><path d="m325.988281 100c0-32.398438-6.0625-63.390625-17.0625-92h-230.9375c-35.34375 0-64 28.65625-64 64v272c0 4.046875.414063 7.992188 1.136719 11.832031 15.214844 2.6875 30.863281 4.167969 46.863281 4.167969 145.800781 0 264-116.40625 264-260zm0 0" fill="#e4725f"/><path d="m125.988281 336c0 17.671875-14.328125 32-32 32s-32-14.328125-32-32 14.328125-32 32-32 32 14.328125 32 32zm0 0" fill="#f0d365"/><path d="m333.988281 336c0 17.671875-14.328125 32-32 32s-32-14.328125-32-32 14.328125-32 32-32 32 14.328125 32 32zm0 0" fill="#f0d365"/><path d="m133.988281 40h128v32h-128zm0 0" fill="#4472b2"/><path d="m349.988281 232h-304v-96c0-17.671875 14.328125-32 32-32h240c17.671875 0 32 14.328125 32 32zm0 0" fill="#8bd2f5"/><path d="m317.988281 416h-240c-39.703125 0-72-32.304688-72-72v-272c0-39.695312 32.296875-72 72-72h240c39.703125 0 72 32.304688 72 72v272c0 39.695312-32.296875 72-72 72zm-240-400c-30.871093 0-56 25.121094-56 56v272c0 30.878906 25.128907 56 56 56h240c30.871094 0 56-25.121094 56-56v-272c0-30.878906-25.128906-56-56-56zm0 0"/><path d="m349.988281 240h-304c-4.425781 0-8-3.585938-8-8v-96c0-22.054688 17.945313-40 40-40h240c22.054688 0 40 17.945312 40 40v96c0 4.414062-3.578125 8-8 8zm-296-16h288v-88c0-13.230469-10.769531-24-24-24h-240c-13.230469 0-24 10.769531-24 24zm0 0"/><path d="m189.988281 104h16v128h-16zm0 0"/><path d="m76.414062 207.835938 3.140626-15.6875 120 23.996093-3.136719 15.691407zm0 0"/><path d="m228.414062 207.835938 3.136719-15.691407 120 24-3.136719 15.6875zm0 0"/><path d="m261.988281 80h-128c-4.425781 0-8-3.585938-8-8v-32c0-4.414062 3.574219-8 8-8h128c4.421875 0 8 3.585938 8 8v32c0 4.414062-3.578125 8-8 8zm-120-16h112v-16h-112zm0 0"/><path d="m93.988281 376c-22.054687 0-40-17.945312-40-40s17.945313-40 40-40c22.054688 0 40 17.945312 40 40s-17.945312 40-40 40zm0-64c-13.230469 0-24 10.769531-24 24s10.769531 24 24 24 24-10.769531 24-24-10.769531-24-24-24zm0 0"/><path d="m301.988281 376c-22.054687 0-40-17.945312-40-40s17.945313-40 40-40c22.054688 0 40 17.945312 40 40s-17.945312 40-40 40zm0-64c-13.230469 0-24 10.769531-24 24s10.769531 24 24 24 24-10.769531 24-24-10.769531-24-24-24zm0 0"/><path d="m.328125 482.339844 80-80 11.3125 11.316406-80 79.996094zm0 0"/><path d="m48.328125 482.339844 80-80 11.3125 11.316406-80 79.996094zm0 0"/><path d="m304.328125 413.65625 11.3125-11.3125 79.996094 80-11.3125 11.3125zm0 0"/><path d="m256.328125 413.65625 11.3125-11.3125 79.996094 79.996094-11.3125 11.316406zm0 0"/><path d="m149.988281 256h96v16h-96zm0 0"/><path d="m149.988281 288h96v16h-96zm0 0"/></svg>