<svg id="Layer_1" enable-background="new 0 0 256 256" height="512" viewBox="0 0 256 256" width="512" xmlns="http://www.w3.org/2000/svg"><g><path d="m121.496 16.363h-44.558c-3.051 0-5.525 2.474-5.525 5.525v11.59c0 3.051 2.474 5.525 5.525 5.525h102.124c3.052 0 5.525-2.474 5.525-5.525v-11.59c0-3.052-2.474-5.525-5.525-5.525h-45.058z" fill="#8ac2d9"/><path d="m179.062 40.503h-102.124c-3.874 0-7.025-3.151-7.025-7.025v-11.59c0-3.874 3.151-7.025 7.025-7.025h44.558c.829 0 1.5.671 1.5 1.5s-.671 1.5-1.5 1.5h-44.558c-2.219 0-4.025 1.806-4.025 4.025v11.59c0 2.219 1.806 4.025 4.025 4.025h102.124c2.219 0 4.025-1.806 4.025-4.025v-11.59c0-2.22-1.806-4.025-4.025-4.025h-45.058c-.829 0-1.5-.671-1.5-1.5s.671-1.5 1.5-1.5h45.058c3.873 0 7.025 3.151 7.025 7.025v11.59c0 3.874-3.152 7.025-7.025 7.025z" fill="#3a312a"/><path d="m226.18 26.054s3.408 12.659 13.222 13.246c0 0-13.1 4.525-13.321 14.202 0 0-2.578-13.572-12.925-14.059-.001.001 12.05-1.825 13.024-13.389z" fill="#d5de58"/><path d="m226.08 55.002c-.713 0-1.335-.506-1.472-1.217-.024-.124-2.495-12.418-11.522-12.843-.771-.037-1.388-.651-1.428-1.421-.04-.771.511-1.445 1.273-1.561.441-.069 10.894-1.817 11.754-12.033.061-.725.634-1.301 1.359-1.367.731-.059 1.393.399 1.584 1.102.032.116 3.259 11.626 11.864 12.141.714.043 1.297.584 1.395 1.292s-.319 1.388-.994 1.623c-.121.042-12.118 4.311-12.312 12.819-.018.767-.61 1.395-1.375 1.459-.042.004-.085.006-.126.006zm-7.742-15.73c3.878 1.969 6.23 5.746 7.587 8.877 2.026-4.022 5.941-6.787 8.949-8.427-4.134-1.842-6.783-5.651-8.334-8.722-1.793 4.359-5.271 6.868-8.202 8.272z" fill="#3a312a"/><path d="m204.481 43.035s2.411 8.954 9.352 9.369c0 0-9.266 3.201-9.422 10.045 0 0-1.824-9.6-9.142-9.944-.001 0 8.523-1.291 9.212-9.47z" fill="#d5de58"/><path d="m204.409 63.949c-.713 0-1.337-.507-1.472-1.22-.016-.082-1.704-8.442-7.739-8.726-.77-.037-1.387-.651-1.427-1.421-.039-.771.511-1.445 1.273-1.561.296-.047 7.364-1.243 7.942-8.113.061-.726.635-1.303 1.36-1.368.729-.066 1.392.4 1.582 1.102.021.079 2.228 7.919 7.994 8.264.715.043 1.299.584 1.396 1.293.098.709-.319 1.388-.996 1.622-.081.028-8.282 2.953-8.413 8.662-.018.767-.611 1.398-1.376 1.461-.041.004-.082.005-.124.005zm-4.518-11.527c2.107 1.332 3.523 3.394 4.447 5.28 1.376-2.232 3.515-3.872 5.365-4.973-2.287-1.269-3.884-3.35-4.941-5.224-1.174 2.287-3.016 3.875-4.871 4.917z" fill="#3a312a"/><path d="m204.481 16.377s2.411 8.954 9.352 9.37c0 0-9.266 3.201-9.422 10.045 0 0-1.824-9.6-9.142-9.944-.001 0 8.523-1.292 9.212-9.471z" fill="#d5de58"/><path d="m204.409 37.292c-.713 0-1.337-.507-1.472-1.22-.016-.082-1.704-8.442-7.739-8.726-.771-.037-1.388-.651-1.428-1.421-.04-.771.511-1.445 1.273-1.561.296-.047 7.364-1.243 7.942-8.114.061-.726.635-1.303 1.36-1.368.729-.067 1.392.399 1.582 1.102.021.079 2.228 7.92 7.994 8.265.714.043 1.299.584 1.396 1.293.098.709-.32 1.388-.996 1.622-.081.028-8.282 2.952-8.413 8.662-.018.767-.611 1.397-1.376 1.461-.04.004-.081.005-.123.005zm-4.518-11.528c2.107 1.333 3.523 3.394 4.447 5.28 1.376-2.233 3.515-3.872 5.365-4.973-2.287-1.27-3.884-3.35-4.941-5.224-1.174 2.287-3.016 3.876-4.871 4.917z" fill="#3a312a"/><path d="m57.482 225.705c0 7.695-6.238 13.933-13.932 13.933s-13.933-6.238-13.933-13.933 6.238-13.932 13.933-13.932 13.932 6.237 13.932 13.932z" fill="#87796f"/><path d="m43.549 241.137c-8.51 0-15.433-6.923-15.433-15.433s6.923-15.433 15.433-15.433 15.433 6.923 15.433 15.433-6.923 15.433-15.433 15.433zm0-27.865c-6.855 0-12.433 5.577-12.433 12.433s5.577 12.433 12.433 12.433 12.433-5.577 12.433-12.433-5.577-12.433-12.433-12.433z" fill="#3a312a"/><path d="m103.482 225.705c0 7.695-6.238 13.933-13.932 13.933s-13.933-6.238-13.933-13.933 6.238-13.932 13.933-13.932 13.932 6.237 13.932 13.932z" fill="#87796f"/><path d="m89.549 241.137c-8.51 0-15.433-6.923-15.433-15.433s6.923-15.433 15.433-15.433 15.433 6.923 15.433 15.433-6.923 15.433-15.433 15.433zm0-27.865c-6.855 0-12.433 5.577-12.433 12.433s5.577 12.433 12.433 12.433 12.433-5.577 12.433-12.433-5.577-12.433-12.433-12.433z" fill="#3a312a"/><path d="m23.42 174.01h86.258c3.768 0 6.822 3.054 6.822 6.822v16.516c0 3.768-3.054 6.822-6.822 6.822h-86.258c-3.768 0-6.822-3.054-6.822-6.822v-16.516c0-3.767 3.055-6.822 6.822-6.822z" fill="#e66b7a"/><path d="m109.678 205.67h-86.258c-4.589 0-8.322-3.733-8.322-8.322v-16.516c0-4.589 3.733-8.322 8.322-8.322h86.258c4.589 0 8.322 3.733 8.322 8.322v16.516c0 4.59-3.733 8.322-8.322 8.322zm-86.258-30.159c-2.935 0-5.322 2.387-5.322 5.322v16.516c0 2.935 2.387 5.322 5.322 5.322h86.258c2.935 0 5.322-2.387 5.322-5.322v-16.516c0-2.935-2.387-5.322-5.322-5.322z" fill="#3a312a"/><path d="m180.383 225.705c0 7.695-6.238 13.933-13.932 13.933s-13.932-6.238-13.932-13.933 6.238-13.932 13.932-13.932 13.932 6.237 13.932 13.932z" fill="#87796f"/><path d="m166.451 241.137c-8.51 0-15.433-6.923-15.433-15.433s6.923-15.433 15.433-15.433 15.433 6.923 15.433 15.433c-.001 8.51-6.924 15.433-15.433 15.433zm0-27.865c-6.855 0-12.433 5.577-12.433 12.433s5.577 12.433 12.433 12.433 12.433-5.577 12.433-12.433-5.578-12.433-12.433-12.433z" fill="#3a312a"/><path d="m226.383 225.705c0 7.695-6.238 13.933-13.932 13.933s-13.932-6.238-13.932-13.933 6.238-13.932 13.932-13.932 13.932 6.237 13.932 13.932z" fill="#87796f"/><path d="m212.451 241.137c-8.51 0-15.433-6.923-15.433-15.433s6.923-15.433 15.433-15.433 15.433 6.923 15.433 15.433c-.001 8.51-6.924 15.433-15.433 15.433zm0-27.865c-6.855 0-12.433 5.577-12.433 12.433s5.577 12.433 12.433 12.433 12.433-5.577 12.433-12.433-5.578-12.433-12.433-12.433z" fill="#3a312a"/><path d="m146.322 174.01h86.258c3.768 0 6.822 3.054 6.822 6.822v16.516c0 3.768-3.054 6.822-6.822 6.822h-86.258c-3.768 0-6.822-3.054-6.822-6.822v-16.516c0-3.767 3.054-6.822 6.822-6.822z" fill="#e66b7a"/><path d="m232.58 205.67h-86.258c-4.589 0-8.322-3.733-8.322-8.322v-16.516c0-4.589 3.733-8.322 8.322-8.322h86.258c4.589 0 8.322 3.733 8.322 8.322v16.516c-.001 4.59-3.734 8.322-8.322 8.322zm-86.258-30.159c-2.935 0-5.322 2.387-5.322 5.322v16.516c0 2.935 2.387 5.322 5.322 5.322h86.258c2.935 0 5.322-2.387 5.322-5.322v-16.516c0-2.935-2.387-5.322-5.322-5.322z" fill="#3a312a"/><path d="m57.482 151.902c0 7.695-6.238 13.932-13.932 13.932s-13.933-6.238-13.933-13.932 6.238-13.933 13.933-13.933 13.932 6.238 13.932 13.933z" fill="#87796f"/><path d="m43.549 167.334c-8.51 0-15.433-6.923-15.433-15.433 0-8.509 6.923-15.432 15.433-15.432s15.433 6.923 15.433 15.432c0 8.51-6.923 15.433-15.433 15.433zm0-27.865c-6.855 0-12.433 5.577-12.433 12.432s5.577 12.433 12.433 12.433 12.433-5.577 12.433-12.433c0-6.855-5.577-12.432-12.433-12.432z" fill="#3a312a"/><path d="m103.482 151.902c0 7.695-6.238 13.932-13.932 13.932s-13.933-6.238-13.933-13.932 6.238-13.933 13.933-13.933 13.932 6.238 13.932 13.933z" fill="#87796f"/><path d="m89.549 167.334c-8.51 0-15.433-6.923-15.433-15.433 0-8.509 6.923-15.432 15.433-15.432s15.433 6.923 15.433 15.432c0 8.51-6.923 15.433-15.433 15.433zm0-27.865c-6.855 0-12.433 5.577-12.433 12.432s5.577 12.433 12.433 12.433 12.433-5.577 12.433-12.433c0-6.855-5.577-12.432-12.433-12.432z" fill="#3a312a"/><path d="m68.993 100.207h-45.573c-3.768 0-6.822 3.054-6.822 6.822v16.516c0 3.768 3.054 6.822 6.822 6.822h86.258c3.768 0 6.822-3.054 6.822-6.822v-16.516c0-3.768-3.054-6.822-6.822-6.822h-28.171z" fill="#e66b7a"/><path d="m109.678 131.867h-86.258c-4.589 0-8.322-3.733-8.322-8.322v-16.516c0-4.589 3.733-8.322 8.322-8.322h45.573c.829 0 1.5.671 1.5 1.5s-.671 1.5-1.5 1.5h-45.573c-2.935 0-5.322 2.387-5.322 5.322v16.516c0 2.935 2.387 5.322 5.322 5.322h86.258c2.935 0 5.322-2.388 5.322-5.322v-16.516c0-2.935-2.387-5.322-5.322-5.322h-28.171c-.829 0-1.5-.671-1.5-1.5s.671-1.5 1.5-1.5h28.171c4.589 0 8.322 3.733 8.322 8.322v16.516c0 4.589-3.733 8.322-8.322 8.322z" fill="#3a312a"/><path d="m180.383 151.902c0 7.695-6.238 13.932-13.932 13.932s-13.932-6.238-13.932-13.932 6.238-13.933 13.932-13.933 13.932 6.238 13.932 13.933z" fill="#87796f"/><path d="m166.451 167.334c-8.51 0-15.433-6.923-15.433-15.433 0-8.509 6.923-15.432 15.433-15.432s15.433 6.923 15.433 15.432c-.001 8.51-6.924 15.433-15.433 15.433zm0-27.865c-6.855 0-12.433 5.577-12.433 12.432s5.577 12.433 12.433 12.433 12.433-5.577 12.433-12.433c-.001-6.855-5.578-12.432-12.433-12.432z" fill="#3a312a"/><path d="m226.383 151.902c0 7.695-6.238 13.932-13.932 13.932s-13.932-6.238-13.932-13.932 6.238-13.933 13.932-13.933 13.932 6.238 13.932 13.933z" fill="#87796f"/><path d="m212.451 167.334c-8.51 0-15.433-6.923-15.433-15.433 0-8.509 6.923-15.432 15.433-15.432s15.433 6.923 15.433 15.432c-.001 8.51-6.924 15.433-15.433 15.433zm0-27.865c-6.855 0-12.433 5.577-12.433 12.432s5.577 12.433 12.433 12.433 12.433-5.577 12.433-12.433c-.001-6.855-5.578-12.432-12.433-12.432z" fill="#3a312a"/><path d="m146.322 100.207h86.258c3.768 0 6.822 3.054 6.822 6.822v16.516c0 3.768-3.054 6.822-6.822 6.822h-86.258c-3.768 0-6.822-3.054-6.822-6.822v-16.516c0-3.767 3.054-6.822 6.822-6.822z" fill="#e66b7a"/><path d="m232.58 131.867h-86.258c-4.589 0-8.322-3.733-8.322-8.322v-16.516c0-4.589 3.733-8.322 8.322-8.322h86.258c4.589 0 8.322 3.733 8.322 8.322v16.516c-.001 4.589-3.734 8.322-8.322 8.322zm-86.258-30.16c-2.935 0-5.322 2.387-5.322 5.322v16.516c0 2.935 2.387 5.322 5.322 5.322h86.258c2.935 0 5.322-2.387 5.322-5.322v-16.516c0-2.935-2.387-5.322-5.322-5.322z" fill="#3a312a"/><path d="m30.117 30.302c0-7.695 6.238-13.932 13.933-13.932s13.932 6.238 13.932 13.932-6.238 13.933-13.932 13.933-13.933-6.238-13.933-13.933z" fill="#87796f"/><path d="m44.049 45.735c-8.51 0-15.433-6.923-15.433-15.433 0-8.509 6.923-15.432 15.433-15.432s15.433 6.923 15.433 15.432c0 8.51-6.923 15.433-15.433 15.433zm0-27.865c-6.855 0-12.433 5.577-12.433 12.432s5.577 12.433 12.433 12.433 12.433-5.577 12.433-12.433c0-6.855-5.577-12.432-12.433-12.432z" fill="#3a312a"/><path d="m64.678 84.996h-41.258c-3.768 0-6.822-3.054-6.822-6.822v-19.515c0-3.768 3.054-6.822 6.822-6.822h41.258c3.768 0 6.822 3.054 6.822 6.822v19.516c0 3.767-3.054 6.821-6.822 6.821z" fill="#e66b7a"/><path d="m64.678 86.497h-41.258c-4.589 0-8.322-3.733-8.322-8.322v-19.516c0-4.589 3.733-8.322 8.322-8.322h41.258c4.589 0 8.322 3.733 8.322 8.322v19.516c0 4.589-3.733 8.322-8.322 8.322zm-41.258-33.16c-2.935 0-5.322 2.387-5.322 5.322v19.516c0 2.935 2.387 5.322 5.322 5.322h41.258c2.935 0 5.322-2.387 5.322-5.322v-19.516c0-2.935-2.387-5.322-5.322-5.322z" fill="#3a312a"/><g fill="#d24e5c"><path d="m237.9 180.833v16.51c0 2.94-2.39 5.33-5.32 5.33h-22c2.93 0 5.32-2.39 5.32-5.33v-16.51c0-2.94-2.39-5.32-5.32-5.32h22c2.93.001 5.32 2.381 5.32 5.32z"/><path d="m237.9 107.034v16.51c0 2.94-2.39 5.32-5.32 5.32h-22c2.93 0 5.32-2.38 5.32-5.32v-16.51c0-2.94-2.39-5.33-5.32-5.33h22c2.93 0 5.32 2.389 5.32 5.33z"/></g></g></svg>